# xmcd CD database file
#
# Track frame offsets:
#	150
#	28996
#	39599
#	70532
#	97708
#	127053
#	153235
#	183305
#
# Disc length: 2818 seconds
#
# Revision: 0
# Processed by: cddbd v1.5.2PL0 Copyright (c) Steve Scherf et al.
# Submitted via: CDex 1.51
#
DISCID=5f0b0008
DTITLE=Susanne Schönwiese - Pilgrim
DYEAR=1900
DGENRE=New Age
TTITLE0=Himalaja Traum
TTITLE1=Gegenüber
TTITLE2=Chants of Montserrat
TTITLE3=New Light
TTITLE4=Improvisacion Andaluza - Nana
TTITLE5=Tristan`s Lament
TTITLE6=Tao
TTITLE7=Chiren
EXTD=
EXTT0=
EXTT1=
EXTT2=
EXTT3=
EXTT4=
EXTT5=
EXTT6=
EXTT7=
PLAYORDER=
